# Blender 4.3.2
# www.blender.org
mtllib debug_track_cube.mtl
o Cube
v 0.076500 0.049500 -0.085000
v 0.076500 0.055000 -0.076500
v 0.085000 0.049500 -0.076500
v 0.076500 0.052246 -0.083864
v 0.080744 0.049500 -0.083864
v 0.080565 0.052130 -0.082761
v 0.080744 0.054265 -0.076500
v 0.076500 0.054265 -0.080744
v 0.080565 0.053551 -0.080565
v 0.083864 0.049500 -0.080744
v 0.083864 0.052246 -0.076500
v 0.082761 0.052130 -0.080565
v 0.076500 -0.055000 -0.076500
v 0.076500 -0.049500 -0.085000
v 0.085000 -0.049500 -0.076500
v 0.076500 -0.054265 -0.080744
v 0.080744 -0.054265 -0.076500
v 0.080565 -0.053551 -0.080565
v 0.080744 -0.049500 -0.083864
v 0.076500 -0.052246 -0.083864
v 0.080565 -0.052130 -0.082761
v 0.083864 -0.052246 -0.076500
v 0.083864 -0.049500 -0.080744
v 0.082761 -0.052130 -0.080565
v 0.085000 0.049500 0.076500
v 0.076500 0.055000 0.076500
v 0.076500 0.049500 0.085000
v 0.083864 0.052246 0.076500
v 0.083864 0.049500 0.080744
v 0.082761 0.052130 0.080565
v 0.076500 0.054265 0.080744
v 0.080744 0.054265 0.076500
v 0.080565 0.053551 0.080565
v 0.080744 0.049500 0.083864
v 0.076500 0.052246 0.083864
v 0.080565 0.052130 0.082761
v 0.085000 -0.049500 0.076500
v 0.076500 -0.049500 0.085000
v 0.076500 -0.055000 0.076500
v 0.083864 -0.049500 0.080744
v 0.083864 -0.052246 0.076500
v 0.082761 -0.052130 0.080565
v 0.076500 -0.052246 0.083864
v 0.080744 -0.049500 0.083864
v 0.080565 -0.052130 0.082761
v 0.080744 -0.054265 0.076500
v 0.076500 -0.054265 0.080744
v 0.080565 -0.053551 0.080565
v -0.076500 0.049500 -0.085000
v -0.085000 0.049500 -0.076500
v -0.076500 0.055000 -0.076500
v -0.080744 0.049500 -0.083864
v -0.076500 0.052246 -0.083864
v -0.080565 0.052130 -0.082761
v -0.083864 0.052246 -0.076500
v -0.083864 0.049500 -0.080744
v -0.082761 0.052130 -0.080565
v -0.076500 0.054265 -0.080744
v -0.080744 0.054265 -0.076500
v -0.080565 0.053551 -0.080565
v -0.085000 -0.049500 -0.076500
v -0.076500 -0.049500 -0.085000
v -0.076500 -0.055000 -0.076500
v -0.083864 -0.049500 -0.080744
v -0.083864 -0.052246 -0.076500
v -0.082761 -0.052130 -0.080565
v -0.076500 -0.052246 -0.083864
v -0.080744 -0.049500 -0.083864
v -0.080565 -0.052130 -0.082761
v -0.080744 -0.054265 -0.076500
v -0.076500 -0.054265 -0.080744
v -0.080565 -0.053551 -0.080565
v -0.085000 0.049500 0.076500
v -0.076500 0.049500 0.085000
v -0.076500 0.055000 0.076500
v -0.083864 0.049500 0.080744
v -0.083864 0.052246 0.076500
v -0.082761 0.052130 0.080565
v -0.076500 0.052246 0.083864
v -0.080744 0.049500 0.083864
v -0.080565 0.052130 0.082761
v -0.080744 0.054265 0.076500
v -0.076500 0.054265 0.080744
v -0.080565 0.053551 0.080565
v -0.076500 -0.055000 0.076500
v -0.076500 -0.049500 0.085000
v -0.085000 -0.049500 0.076500
v -0.076500 -0.054265 0.080744
v -0.080744 -0.054265 0.076500
v -0.080565 -0.053551 0.080565
v -0.080744 -0.049500 0.083864
v -0.076500 -0.052246 0.083864
v -0.080565 -0.052130 0.082761
v -0.083864 -0.052246 0.076500
v -0.083864 -0.049500 0.080744
v -0.082761 -0.052130 0.080565
vn -0.0000 -1.0000 -0.0000
vn -1.0000 -0.0000 -0.0000
vn -0.0000 -0.0000 1.0000
vn -0.0000 1.0000 -0.0000
vn 1.0000 -0.0000 -0.0000
vn 0.2456 0.3796 -0.8920
vn 0.1690 0.8275 -0.5354
vn 0.1728 0.9697 -0.1728
vn 0.5354 0.8275 -0.1690
vn 0.8920 0.3796 -0.2456
vn 0.6685 0.3260 -0.6685
vn 0.4774 0.7377 -0.4774
vn 0.1728 -0.9697 -0.1728
vn 0.1690 -0.8275 -0.5354
vn 0.2456 -0.3796 -0.8920
vn 0.6685 -0.3260 -0.6685
vn 0.8920 -0.3796 -0.2456
vn 0.5354 -0.8275 -0.1690
vn 0.4774 -0.7377 -0.4774
vn 0.8920 0.3796 0.2456
vn 0.5354 0.8275 0.1690
vn 0.1728 0.9697 0.1728
vn 0.1690 0.8275 0.5354
vn 0.2456 0.3796 0.8920
vn 0.6685 0.3260 0.6685
vn 0.4774 0.7377 0.4774
vn 0.8920 -0.3796 0.2456
vn 0.6685 -0.3260 0.6685
vn 0.2456 -0.3796 0.8920
vn 0.1690 -0.8275 0.5354
vn 0.1728 -0.9697 0.1728
vn 0.5354 -0.8275 0.1690
vn 0.4774 -0.7377 0.4774
vn -0.2456 0.3796 -0.8920
vn -0.6685 0.3260 -0.6685
vn -0.8920 0.3796 -0.2456
vn -0.5354 0.8275 -0.1690
vn -0.1728 0.9697 -0.1728
vn -0.1690 0.8275 -0.5354
vn -0.4774 0.7377 -0.4774
vn -0.8920 -0.3796 -0.2456
vn -0.6685 -0.3260 -0.6685
vn -0.2456 -0.3796 -0.8920
vn -0.1690 -0.8275 -0.5354
vn -0.1728 -0.9697 -0.1728
vn -0.5354 -0.8275 -0.1690
vn -0.4774 -0.7377 -0.4774
vn -0.8920 0.3796 0.2456
vn -0.6685 0.3260 0.6685
vn -0.2456 0.3796 0.8920
vn -0.1690 0.8275 0.5354
vn -0.1728 0.9697 0.1728
vn -0.5354 0.8275 0.1690
vn -0.4774 0.7377 0.4774
vn -0.1728 -0.9697 0.1728
vn -0.1690 -0.8275 0.5354
vn -0.2456 -0.3796 0.8920
vn -0.6685 -0.3260 0.6685
vn -0.8920 -0.3796 0.2456
vn -0.5354 -0.8275 0.1690
vn -0.4774 -0.7377 0.4774
vn -0.1706 -0.9853 -0.0000
vn -0.5433 -0.8396 -0.0000
vn -0.9241 -0.3821 -0.0000
vn -0.0000 -0.9853 -0.1706
vn -0.0000 -0.8396 -0.5433
vn -0.0000 -0.3821 -0.9241
vn 0.9660 -0.0000 -0.2585
vn 0.7071 -0.0000 -0.7071
vn 0.2585 -0.0000 -0.9660
vn -0.2585 -0.0000 0.9660
vn -0.7071 -0.0000 0.7071
vn -0.9660 -0.0000 0.2585
vn 0.2585 -0.0000 0.9660
vn 0.7071 -0.0000 0.7071
vn 0.9660 -0.0000 0.2585
vn -0.2585 -0.0000 -0.9660
vn -0.7071 -0.0000 -0.7071
vn -0.9660 -0.0000 -0.2585
vn -0.0000 0.9853 0.1706
vn -0.0000 0.8396 0.5433
vn -0.0000 0.3821 0.9241
vn 0.1706 0.9853 -0.0000
vn 0.5433 0.8396 -0.0000
vn 0.9241 0.3821 -0.0000
vn -0.0000 -0.9853 0.1706
vn -0.0000 -0.8396 0.5433
vn -0.0000 -0.3821 0.9241
vn -0.1706 0.9853 -0.0000
vn -0.5433 0.8396 -0.0000
vn -0.9241 0.3821 -0.0000
vn -0.0000 0.9853 -0.1706
vn -0.0000 0.8396 -0.5433
vn -0.0000 0.3821 -0.9241
vn 0.1706 -0.9853 -0.0000
vn 0.5433 -0.8396 -0.0000
vn 0.9241 -0.3821 -0.0000
vn -0.0000 -0.0000 -1.0000
vt 0.137500 0.512500
vt 0.362500 0.512500
vt 0.362500 0.737500
vt 0.137500 0.737500
vt 0.387500 0.012500
vt 0.612500 0.012500
vt 0.612500 0.237500
vt 0.387500 0.237500
vt 0.387500 0.762500
vt 0.612500 0.762500
vt 0.612500 0.987500
vt 0.387500 0.987500
vt 0.637500 0.512500
vt 0.862500 0.512500
vt 0.862500 0.737500
vt 0.637500 0.737500
vt 0.387500 0.512500
vt 0.612500 0.512500
vt 0.612500 0.737500
vt 0.387500 0.737500
vt 0.612500 0.487500
vt 0.618742 0.487500
vt 0.618478 0.493478
vt 0.612500 0.493742
vt 0.625000 0.487500
vt 0.625000 0.493478
vt 0.631258 0.512500
vt 0.631522 0.500000
vt 0.637500 0.500000
vt 0.618742 0.512500
vt 0.618478 0.506522
vt 0.612500 0.506258
vt 0.618478 0.496708
vt 0.362500 0.506258
vt 0.368478 0.506522
vt 0.368742 0.512500
vt 0.362500 0.500000
vt 0.368478 0.500000
vt 0.387500 0.487500
vt 0.387500 0.493742
vt 0.375000 0.493478
vt 0.375000 0.487500
vt 0.387500 0.506258
vt 0.381522 0.506522
vt 0.381258 0.512500
vt 0.371708 0.506522
vt 0.618742 0.737500
vt 0.618478 0.743478
vt 0.612500 0.743742
vt 0.631258 0.737500
vt 0.631522 0.750000
vt 0.637500 0.750000
vt 0.625000 0.762500
vt 0.618742 0.762500
vt 0.618478 0.756522
vt 0.625000 0.756522
vt 0.612500 0.756258
vt 0.618478 0.753292
vt 0.387500 0.743742
vt 0.381522 0.743478
vt 0.381258 0.737500
vt 0.387500 0.756258
vt 0.375000 0.756522
vt 0.375000 0.762500
vt 0.362500 0.750000
vt 0.362500 0.743742
vt 0.368478 0.743478
vt 0.368478 0.750000
vt 0.368742 0.737500
vt 0.371708 0.743478
vt 0.612500 0.262500
vt 0.612500 0.256258
vt 0.618478 0.256522
vt 0.618742 0.262500
vt 0.612500 0.243742
vt 0.618478 0.243478
vt 0.618742 0.237500
vt 0.625000 0.237500
vt 0.625000 0.243478
vt 0.862500 0.500000
vt 0.875000 0.506522
vt 0.875000 0.512500
vt 0.625000 0.262500
vt 0.625000 0.250000
vt 0.618478 0.246708
vt 0.387500 0.243742
vt 0.375000 0.243478
vt 0.375000 0.237500
vt 0.387500 0.256258
vt 0.375000 0.256522
vt 0.387500 0.262500
vt 0.375000 0.262500
vt 0.137500 0.500000
vt 0.137500 0.506258
vt 0.131522 0.506522
vt 0.131522 0.500000
vt 0.131258 0.512500
vt 0.125000 0.512500
vt 0.125000 0.506522
vt 0.612500 0.006258
vt 0.618478 0.006522
vt 0.618742 0.012500
vt 0.612500 0.000000
vt 0.618478 0.000000
vt 0.618742 0.987500
vt 0.618478 1.000000
vt 0.612500 1.000000
vt 0.625000 0.987500
vt 0.625000 1.000000
vt 0.875000 0.737500
vt 0.875000 0.743478
vt 0.862500 0.750000
vt 0.625000 0.012500
vt 0.625000 0.006522
vt 0.137500 0.743742
vt 0.131522 0.743478
vt 0.131258 0.737500
vt 0.137500 0.750000
vt 0.131522 0.750000
vt 0.387500 1.000000
vt 0.375000 0.993478
vt 0.375000 0.987500
vt 0.387500 0.000000
vt 0.387500 0.006258
vt 0.375000 0.006522
vt 0.375000 0.000000
vt 0.375000 0.012500
vt 0.125000 0.737500
vt 0.125000 0.743478
s 0
usemtl Material
f 63/1/1 13/2/1 39/3/1 85/4/1
f 87/5/2 73/6/2 50/7/2 61/8/2
f 38/9/3 27/10/3 74/11/3 86/12/3
f 2/13/4 51/14/4 75/15/4 26/16/4
f 15/17/5 3/18/5 25/19/5 37/20/5
f 1/21/6 4/22/6 6/23/6 5/24/6
f 4/22/7 8/25/7 9/26/7 6/23/7
f 2/13/8 7/27/8 9/28/8 8/29/8
f 7/27/9 11/30/9 12/31/9 9/28/9
f 3/18/10 10/32/10 12/31/10 11/30/10
f 10/32/11 5/24/11 6/23/11 12/31/11
f 6/23/12 9/26/12 12/33/12
f 13/2/13 16/34/13 18/35/13 17/36/13
f 16/34/14 20/37/14 21/38/14 18/35/14
f 14/39/15 19/40/15 21/41/15 20/42/15
f 19/40/16 23/43/16 24/44/16 21/41/16
f 15/17/17 22/45/17 24/44/17 23/43/17
f 22/45/18 17/36/18 18/35/18 24/44/18
f 18/35/19 21/38/19 24/46/19
f 25/19/20 28/47/20 30/48/20 29/49/20
f 28/47/21 32/50/21 33/51/21 30/48/21
f 26/16/22 31/52/22 33/51/22 32/50/22
f 31/53/23 35/54/23 36/55/23 33/56/23
f 27/10/24 34/57/24 36/55/24 35/54/24
f 34/57/25 29/49/25 30/48/25 36/55/25
f 30/58/26 33/56/26 36/55/26
f 37/20/27 40/59/27 42/60/27 41/61/27
f 40/59/28 44/62/28 45/63/28 42/60/28
f 38/9/29 43/64/29 45/63/29 44/62/29
f 43/65/30 47/66/30 48/67/30 45/68/30
f 39/3/31 46/69/31 48/67/31 47/66/31
f 46/69/32 41/61/32 42/60/32 48/67/32
f 42/70/33 45/68/33 48/67/33
f 49/71/34 52/72/34 54/73/34 53/74/34
f 52/72/35 56/75/35 57/76/35 54/73/35
f 50/7/36 55/77/36 57/76/36 56/75/36
f 55/77/37 59/78/37 60/79/37 57/76/37
f 51/14/38 58/80/38 60/81/38 59/82/38
f 58/83/39 53/74/39 54/73/39 60/84/39
f 54/85/40 57/76/40 60/79/40
f 61/8/41 64/86/41 66/87/41 65/88/41
f 64/86/42 68/89/42 69/90/42 66/87/42
f 62/91/43 67/92/43 69/90/43 68/89/43
f 67/93/44 71/94/44 72/95/44 69/96/44
f 63/1/45 70/97/45 72/95/45 71/94/45
f 70/97/46 65/98/46 66/99/46 72/95/46
f 66/99/47 69/96/47 72/95/47
f 73/6/48 76/100/48 78/101/48 77/102/48
f 76/100/49 80/103/49 81/104/49 78/101/49
f 74/11/50 79/105/50 81/106/50 80/107/50
f 79/105/51 83/108/51 84/109/51 81/106/51
f 75/15/52 82/110/52 84/111/52 83/112/52
f 82/113/53 77/102/53 78/101/53 84/114/53
f 78/101/54 81/104/54 84/114/54
f 85/4/55 88/115/55 90/116/55 89/117/55
f 88/115/56 92/118/56 93/119/56 90/116/56
f 86/12/57 91/120/57 93/121/57 92/122/57
f 91/123/58 95/124/58 96/125/58 93/126/58
f 87/5/59 94/127/59 96/125/59 95/124/59
f 94/128/60 89/117/60 90/116/60 96/129/60
f 90/116/61 93/119/61 96/129/61
f 63/1/62 85/4/62 89/117/62 70/97/62
f 70/97/63 89/117/63 94/128/63 65/98/63
f 65/88/64 94/127/64 87/5/64 61/8/64
f 13/2/65 63/1/65 71/94/65 16/34/65
f 16/34/66 71/94/66 67/93/66 20/37/66
f 20/42/67 67/92/67 62/91/67 14/39/67
f 3/18/68 15/17/68 23/43/68 10/32/68
f 10/32/69 23/43/69 19/40/69 5/24/69
f 5/24/70 19/40/70 14/39/70 1/21/70
f 86/12/71 74/11/71 80/107/71 91/120/71
f 91/123/72 80/103/72 76/100/72 95/124/72
f 95/124/73 76/100/73 73/6/73 87/5/73
f 27/10/74 38/9/74 44/62/74 34/57/74
f 34/57/75 44/62/75 40/59/75 29/49/75
f 29/49/76 40/59/76 37/20/76 25/19/76
f 49/71/77 62/91/77 68/89/77 52/72/77
f 52/72/78 68/89/78 64/86/78 56/75/78
f 56/75/79 64/86/79 61/8/79 50/7/79
f 26/16/80 75/15/80 83/112/80 31/52/80
f 31/53/81 83/108/81 79/105/81 35/54/81
f 35/54/82 79/105/82 74/11/82 27/10/82
f 2/13/83 26/16/83 32/50/83 7/27/83
f 7/27/84 32/50/84 28/47/84 11/30/84
f 11/30/85 28/47/85 25/19/85 3/18/85
f 85/4/86 39/3/86 47/66/86 88/115/86
f 88/115/87 47/66/87 43/65/87 92/118/87
f 92/122/88 43/64/88 38/9/88 86/12/88
f 75/15/89 51/14/89 59/82/89 82/110/89
f 82/113/90 59/78/90 55/77/90 77/102/90
f 77/102/91 55/77/91 50/7/91 73/6/91
f 51/14/92 2/13/92 8/29/92 58/80/92
f 58/83/93 8/25/93 4/22/93 53/74/93
f 53/74/94 4/22/94 1/21/94 49/71/94
f 39/3/95 13/2/95 17/36/95 46/69/95
f 46/69/96 17/36/96 22/45/96 41/61/96
f 41/61/97 22/45/97 15/17/97 37/20/97
f 62/91/98 49/71/98 1/21/98 14/39/98
